<?xml version="1.0" encoding="UTF-8"?><!DOCTYPE svg PUBLIC "-//W3C//DTD SVG 1.1//EN" "http://www.w3.org/Graphics/SVG/1.1/DTD/svg11.dtd"><svg xmlns="http://www.w3.org/2000/svg" xmlns:xlink="http://www.w3.org/1999/xlink" version="1.1" width="24" height="24" viewBox="0 0 24.00 24.00"><path d="M22.4592 6.01238C21.6896 6.35373 20.8624 6.58442 20 6.68815C20.8803 6.15701 21.5609 5.31598 21.8813 4.31378C21.052 4.80564 20.1336 5.16278 19.156 5.3552C18.3732 4.52112 17.2579 4 16.0235 4C13.6534 4 11.7317 5.92147 11.7317 8.29155C11.7317 8.6279 11.7697 8.95546 11.8429 9.2696C8.2761 9.0906 5.11376 7.38203 3 4.78551C2.62766 5.41935 2.41602 6.15656 2.41602 6.94309C2.41602 8.43204 3.17365 9.74563 4.32524 10.5153C3.6218 10.4929 2.95997 10.2999 2.3814 9.97846C2.38099 10 2.38099 10.0143 2.38099 10.0324C2.38099 12.1118 3.86034 13.8463 5.8236 14.2406C5.4635 14.3387 5.08435 14.3912 4.69295 14.3912C4.41641 14.3912 4.14756 14.3642 3.88547 14.3142C4.43162 16.0191 6.01654 17.26 7.89455 17.2945C6.42577 18.4457 4.57528 19.1318 2.56454 19.1318C2.21813 19.1318 1.87652 19.1114 1.54078 19.0717C3.44004 20.2894 5.69592 21 8.11951 21C16.0134 21 20.3302 14.4605 20.3302 8.78918C20.3302 8.60314 20.326 8.41805 20.3177 8.23395C21.1563 7.62886 21.8839 6.87302 22.4592 6.01238Z" /></svg>